<svg xmlns="http://www.w3.org/2000/svg" viewBox="0 0 64 64">
  <defs>
    <linearGradient id="sea" x1="32" y1="0" x2="32" y2="64">
      <stop offset="0" stop-color="#0A5560"/>
      <stop offset="0.55" stop-color="#073A42"/>
      <stop offset="1" stop-color="#041E24"/>
    </linearGradient>
    <linearGradient id="gold" x1="32" y1="6" x2="32" y2="42">
      <stop offset="0" stop-color="#F8EBC4"/>
      <stop offset="0.45" stop-color="#E4C77A"/>
      <stop offset="1" stop-color="#C9A24A"/>
    </linearGradient>
  </defs>
  <rect width="64" height="64" rx="14" fill="url(#sea)"/>
  <path d="M32 5.2v6.2" stroke="#F8EBC4" stroke-width="1.15" stroke-linecap="round"/>
  <path d="M32.6 5.6h7.2l-1.6 2.2 1.6 2.2H32.6z" fill="#F3E2B0"/>
  <circle cx="32" cy="12.2" r="1.15" fill="url(#gold)"/>
  <ellipse cx="32" cy="14.6" rx="5.2" ry="1.35" fill="url(#gold)"/>
  <path d="M22.8 20.4c2.2-3.4 4.8-5.6 9.2-5.6s7 2.2 9.2 5.6c1.3 2 1.7 3.3 1.3 4.9-.8 3.2-3.2 4.6-4.6 8.6-.8 2.2-1 3.8-.8 5.3H27c.2-1.5 0-3.1-.8-5.3-1.4-4-3.8-5.4-4.6-8.6-.4-1.6 0-2.9 1.2-4.9z" fill="url(#gold)"/>
  <path d="M27.2 38.6h9.6l1.5 4.6H25.7z" fill="url(#gold)"/>
  <path d="M29.4 36.4h5.2l.8 2.2h-6.8z" fill="url(#gold)"/>
  <rect x="30.4" y="39.2" width="3.2" height="4" rx="0.35" fill="#041E24" opacity="0.55"/>
  <path d="M8 43.6c8-2.8 16.4-1.2 24 .4 8.2 1.7 16.2 1.4 24-1.6" fill="none" stroke="#E8B86A" stroke-width="1.15" stroke-linecap="round"/>
  <path d="M7 49.2c7.4-4.6 14.2-2.2 20.4.4 7 2.8 13.6 3.4 30-1.8" fill="none" stroke="#5CF6EA" stroke-width="2.1" stroke-linecap="round"/>
</svg>
